<svg fill="none" viewBox="0 0 24 24" xmlns="http://www.w3.org/2000/svg"><g clip-rule="evenodd" fill="#293e31" fill-rule="evenodd" class="fill-000000"><path d="M1.25 3A2.75 2.75 0 0 1 4 .25h10A2.75 2.75 0 0 1 16.75 3v9.5a.75.75 0 0 1-1.5 0V3c0-.69-.56-1.25-1.25-1.25H4c-.69 0-1.25.56-1.25 1.25v18c0 .69.56 1.25 1.25 1.25h8a.75.75 0 0 1 0 1.5H4A2.75 2.75 0 0 1 1.25 21V3Z"></path><path d="M4.362.606A.75.75 0 0 1 5 .25h8a.75.75 0 0 1 .67 1.085l-.723 1.448a1.75 1.75 0 0 1-1.565.967H6.618a1.75 1.75 0 0 1-1.565-.967l-.724-1.448a.75.75 0 0 1 .033-.73ZM6.214 1.75l.18.362a.25.25 0 0 0 .224.138h4.764a.25.25 0 0 0 .224-.138l.18-.362H6.215ZM6.25 20a.75.75 0 0 1 .75-.75h4a.75.75 0 0 1 0 1.5H7a.75.75 0 0 1-.75-.75ZM12.454 18.288a1.75 1.75 0 0 1 1.726-2.038h7.64a1.75 1.75 0 0 1 1.726 2.038l-.528 3.164a2.75 2.75 0 0 1-2.712 2.298h-4.612a2.75 2.75 0 0 1-2.712-2.298l-.528-3.164Zm1.726-.538a.25.25 0 0 0-.246.291l.527 3.165a1.25 1.25 0 0 0 1.233 1.044h4.612a1.25 1.25 0 0 0 1.233-1.044l.527-3.165a.25.25 0 0 0-.246-.291h-7.64Z"></path><path d="M16 18.75a.75.75 0 0 1 .75.75v1a.75.75 0 0 1-1.5 0v-1a.75.75 0 0 1 .75-.75ZM18 18.75a.75.75 0 0 1 .75.75v1a.75.75 0 0 1-1.5 0v-1a.75.75 0 0 1 .75-.75ZM20 18.75a.75.75 0 0 1 .75.75v1a.75.75 0 0 1-1.5 0v-1a.75.75 0 0 1 .75-.75ZM15.665 14.33a.75.75 0 0 1 1.006.335l1 2a.75.75 0 1 1-1.342.67l-1-2a.75.75 0 0 1 .336-1.006ZM20.335 14.33a.75.75 0 0 1 .336 1.005l-1 2a.75.75 0 1 1-1.342-.67l1-2a.75.75 0 0 1 1.006-.336Z"></path></g></svg>